name D:\school\WTK\thesis\model\3dpredictsim\Results\batch_windlass\Pog_s1_tmt_bCst_d00_k1000_WL20_ig24_pas.mot
datacolumns 128
datarows 4
range 1.07474858 1.10699104
endheader
time	pelvis_tilt	pelvis_list	pelvis_rotation	pelvis_tx	pelvis_ty	pelvis_tz	hip_flexion_l	hip_adduction_l	hip_rotation_l	hip_flexion_r	hip_adduction_r	hip_rotation_r	knee_angle_l	knee_angle_r	ankle_angle_l	ankle_angle_r	subtalar_angle_l	subtalar_angle_r	tmt_angle_l	tmt_angle_r	mtp_angle_l	mtp_angle_r	lumbar_extension	lumbar_bending	lumbar_rotation	arm_flex_l	arm_add_l	arm_rot_l	arm_flex_r	arm_add_r	arm_rot_r	elbow_flex_l	elbow_flex_r	pro_sup_l	pro_sup_r	glut_med1_l/activation	glut_med2_l/activation	glut_med3_l/activation	glut_min1_l/activation	glut_min2_l/activation	glut_min3_l/activation	semimem_l/activation	semiten_l/activation	bifemlh_l/activation	bifemsh_l/activation	sar_l/activation	add_long_l/activation	add_brev_l/activation	add_mag1_l/activation	add_mag2_l/activation	add_mag3_l/activation	tfl_l/activation	pect_l/activation	grac_l/activation	glut_max1_l/activation	glut_max2_l/activation	glut_max3_l/activation	iliacus_l/activation	psoas_l/activation	quad_fem_l/activation	gem_l/activation	peri_l/activation	rect_fem_l/activation	vas_med_l/activation	vas_int_l/activation	vas_lat_l/activation	med_gas_l/activation	lat_gas_l/activation	soleus_l/activation	tib_post_l/activation	flex_dig_l/activation	flex_hal_l/activation	tib_ant_l/activation	per_brev_l/activation	per_long_l/activation	per_tert_l/activation	ext_dig_l/activation	ext_hal_l/activation	ercspn_l/activation	intobl_l/activation	extobl_l/activation	glut_med1_r/activation	glut_med2_r/activation	glut_med3_r/activation	glut_min1_r/activation	glut_min2_r/activation	glut_min3_r/activation	semimem_r/activation	semiten_r/activation	bifemlh_r/activation	bifemsh_r/activation	sar_r/activation	add_long_r/activation	add_brev_r/activation	add_mag1_r/activation	add_mag2_r/activation	add_mag3_r/activation	tfl_r/activation	pect_r/activation	grac_r/activation	glut_max1_r/activation	glut_max2_r/activation	glut_max3_r/activation	iliacus_r/activation	psoas_r/activation	quad_fem_r/activation	gem_r/activation	peri_r/activation	rect_fem_r/activation	vas_med_r/activation	vas_int_r/activation	vas_lat_r/activation	med_gas_r/activation	lat_gas_r/activation	soleus_r/activation	tib_post_r/activation	flex_dig_r/activation	flex_hal_r/activation	tib_ant_r/activation	per_brev_r/activation	per_long_r/activation	per_tert_r/activation	ext_dig_r/activation	ext_hal_r/activation	ercspn_r/activation	intobl_r/activation	extobl_r/activation	
          1.07474858	         -2.92034763	         -1.65311075	          5.92013903	          1.34343572	          0.85794701	         -0.00255294	        -17.82013741	         -1.48062362	          8.21953206	         31.54643719	          2.29467087	         -3.98729796	        -10.12144674	        -18.33498848	         -1.06964150	          1.90312737	         13.26523822	          0.77641961	         -5.38991178	         -0.52924056	         27.77007687	          2.29733933	         -1.12288469	          0.17261642	         -1.81681093	          5.07807654	        -13.45758667	         14.84488039	        -10.61281500	        -13.60096474	          5.79371661	         36.88685894	         18.37889944	         86.51662706	         86.51662706	          0.22117308	          0.08759773	          0.05000249	          0.25981213	          0.18170849	          0.09239124	          0.05009991	          0.05001554	          0.05001132	          0.06713446	          0.08351346	          0.16096371	          0.09526984	          0.05006685	          0.05010690	          0.05004312	          0.32190879	          0.08498626	          0.05004012	          0.05009801	          0.05006845	          0.05005377	          0.33031146	          0.56176601	          0.05000670	          0.05001619	          0.05000499	          0.23951570	          0.11694641	          0.05086962	          0.07764214	          0.26906711	          0.35012603	          0.22621389	          0.20048786	          0.20669951	          0.26464121	          0.05000159	          0.12327640	          0.17360818	          0.05001028	          0.05000407	          0.05000779	          0.05000161	          0.05000358	          0.05692840	          0.05895651	          0.05895546	          0.05002980	          0.05895570	          0.05895481	          0.05894881	          0.06753097	          0.05897661	          0.25488058	          0.05001257	          0.05001403	          0.13456137	          0.23482520	          0.10622257	          0.17616882	          0.09180795	          0.05003864	          0.05081050	          0.12905843	          0.05152237	          0.05229332	          0.13984352	          0.05849623	          0.05474963	          0.34908093	          0.09742915	          0.11928566	          0.05000297	          0.10554491	          0.11534962	          0.09584486	          0.05895874	          0.05895946	          0.05895655	          0.05747974	          0.05004591	          0.05894836	          0.53572657	          0.31047380	          0.17321126	          0.27642749	          0.56464981	          0.05001760	          0.05000378	          0.09670058	          0.09918098	
          1.08549606	         -2.90668222	         -1.78900358	          6.13772599	          1.36000637	          0.85703862	         -0.00232455	        -17.40544244	         -1.78161708	          8.00361970	         30.99554758	          2.77544579	         -3.75026654	        -12.44306611	        -18.63582237	         -2.12557413	          1.71810870	         14.24141347	          0.20151726	         -5.81697023	         -0.61434493	         28.52889570	          2.60934835	         -0.90471008	          0.46763650	         -1.88709721	          4.79840954	        -13.47406595	         15.13267709	        -11.59476541	        -13.58997172	          5.65483654	         37.79534305	         18.21615095	         86.51662706	         86.51662706	          0.18757601	          0.07429345	          0.05896632	          0.22034780	          0.15410850	          0.07836267	          0.05017670	          0.05001119	          0.05002006	          0.05693804	          0.07083390	          0.22745524	          0.25834735	          0.32033954	          0.10522095	          0.13359104	          0.27319730	          0.07236083	          0.05007751	          0.05008942	          0.05006214	          0.05007155	          0.28013419	          0.48761030	          0.05004014	          0.06953280	          0.05906034	          0.20313322	          0.09924628	          0.13433051	          0.12494726	          0.22819239	          0.29693776	          0.19184910	          0.17003338	          0.17530661	          0.22444359	          0.12516784	          0.10455261	          0.14723702	          0.05000869	          0.13740456	          0.05004332	          0.05000895	          0.07642479	          0.05669740	          0.05000123	          0.05000325	          0.09551940	          0.05000283	          0.05000325	          0.05000483	          0.05727312	          0.05002172	          0.21616280	          0.05895769	          0.05908214	          0.11413987	          0.19918854	          0.43161444	          0.27374489	          0.07786649	          0.05000853	          0.08160671	          0.15240586	          0.05002742	          0.06680234	          0.16282882	          0.06951612	          0.06953053	          0.62078472	          0.16924918	          0.12256761	          0.06951712	          0.23535532	          0.24182589	          0.20821510	          0.05000231	          0.05000316	          0.05000035	          0.05000158	          0.05890603	          0.05001351	          0.65247321	          0.26719135	          0.14694141	          0.57845412	          0.61630974	          0.32477302	          0.05000108	          0.08201082	          0.08411445	
          1.09624355	         -2.88867495	         -1.93575543	          6.32814839	          1.37676274	          0.85591141	         -0.00212268	        -16.88895182	         -2.06821372	          7.77378025	         30.26676501	          3.19840585	         -3.42591743	        -14.96437704	        -19.24359008	         -3.18055271	          1.82980298	         15.13514051	         -0.42777565	         -6.09699536	         -0.72374420	         28.62837415	          2.79950535	         -0.67426997	          0.78015369	         -1.94312233	          4.44975362	        -13.49391899	         15.34418812	        -12.55197295	        -13.59520692	          5.61628323	         38.70754495	         18.01209843	         86.51662706	         86.51662706	          0.19028653	          0.06301068	          0.05002904	          0.18688025	          0.13070264	          0.06646294	          0.05018256	          0.05025571	          0.05896047	          0.05000401	          0.06008008	          0.19291495	          0.33447337	          0.27168409	          0.08955916	          0.11331662	          0.33855747	          0.06142071	          0.05886923	          0.05888005	          0.05907130	          0.05946401	          0.23758036	          0.44588503	          0.05896390	          0.05898483	          0.05009043	          0.17227524	          0.08417257	          0.11392622	          0.10596806	          0.19352711	          0.25182960	          0.16270479	          0.14420506	          0.14868145	          0.19035252	          0.23220876	          0.13385600	          0.14306352	          0.35788663	          0.24789961	          0.15957427	          0.08234666	          0.06481518	          0.05019496	          0.32740778	          0.31070055	          0.37166099	          0.23201032	          0.05016926	          0.24904709	          0.09973505	          0.12197429	          0.18867928	          0.05000285	          0.05010952	          0.09680624	          0.26778680	          0.36605216	          0.23646107	          0.15270167	          0.05001220	          0.06954306	          0.12927117	          0.05001723	          0.05667448	          0.17962647	          0.05895818	          0.05896922	          0.52648076	          0.14354225	          0.25202676	          0.05895717	          0.22619997	          0.23672560	          0.19897975	          0.05894914	          0.05877397	          0.05895628	          0.05000183	          0.05001857	          0.05102706	          0.55335536	          0.22660436	          0.12462020	          0.51777683	          0.60592528	          0.27555256	          0.05000257	          0.07784595	          0.07133669	
          1.10699104	         -2.86867148	         -2.07970013	          6.48915692	          1.39348459	          0.85461217	         -0.00191638	        -16.24400744	         -2.32760688	          7.54536807	         29.35839235	          3.58715318	         -3.07920175	        -17.71681710	        -19.68738486	         -4.12937007	          1.97117556	         15.92297417	         -1.06638856	         -6.04268732	         -0.71245380	         27.56997911	          2.91729995	         -0.45158640	          1.08949596	         -1.98843334	          4.06885220	        -13.52615964	         15.50626915	        -13.43958912	        -13.61109045	          5.68275215	         39.60800488	         17.75248069	         86.51662706	         86.51662706	          0.16138434	          0.05344581	          0.05000635	          0.18576061	          0.11085870	          0.05638228	          0.05460812	          0.05001910	          0.05003080	          0.05001918	          0.05898828	          0.17900302	          0.28366672	          0.23041796	          0.07596681	          0.09610901	          0.36618096	          0.05211274	          0.05003497	          0.05010619	          0.05013078	          0.05044058	          0.20149845	          0.41275420	          0.05001079	          0.05005445	          0.05001973	          0.14610827	          0.07138770	          0.09662120	          0.08987193	          0.16412803	          0.21357434	          0.13798802	          0.12235165	          0.12610629	          0.16145418	          0.22315178	          0.11539496	          0.13554493	          0.30352469	          0.25415176	          0.13533850	          0.11572663	          0.05496913	          0.05000194	          0.44069451	          0.48935485	          0.53971783	          0.34485979	          0.37408462	          0.41847965	          0.08458621	          0.11868848	          0.16001725	          0.08576753	          0.05891632	          0.08210154	          0.22710794	          0.31044948	          0.20056359	          0.16399915	          0.05001598	          0.05899489	          0.13492688	          0.27236404	          0.19967560	          0.16562007	          0.05000768	          0.05001368	          0.44650319	          0.12174128	          0.21377907	          0.05000175	          0.28359860	          0.32333954	          0.26609387	          0.05000036	          0.05000072	          0.05000014	          0.06344846	          0.05002415	          0.05000556	          0.68447785	          0.19218113	          0.10568942	          0.44263263	          0.51418238	          0.36029024	          0.07670107	          0.06785754	          0.06050006	
